<mxfile host="app.diagrams.net" agent="Mozilla/5.0 (X11; Ubuntu; Linux x86_64; rv:139.0) Gecko/20100101 Firefox/139.0" version="27.1.1">
  <diagram name="Page-1" id="BBwyY8dmLRAcq-_amI1H">
    <mxGraphModel dx="2065" dy="1197" grid="0" gridSize="10" guides="1" tooltips="1" connect="1" arrows="1" fold="1" page="0" pageScale="1" pageWidth="850" pageHeight="1100" math="0" shadow="0">
      <root>
        <mxCell id="0" />
        <mxCell id="1" parent="0" />
        <mxCell id="2KIVhRjF1y1EVybfexX1-1" value="Inmate" style="whiteSpace=wrap;html=1;align=center;" vertex="1" parent="1">
          <mxGeometry x="166" y="65" width="100" height="40" as="geometry" />
        </mxCell>
        <mxCell id="2KIVhRjF1y1EVybfexX1-3" value="" style="endArrow=none;html=1;rounded=0;entryX=0;entryY=0.5;entryDx=0;entryDy=0;" edge="1" parent="1" source="2KIVhRjF1y1EVybfexX1-4" target="2KIVhRjF1y1EVybfexX1-1">
          <mxGeometry relative="1" as="geometry">
            <mxPoint x="10" y="8" as="sourcePoint" />
            <mxPoint x="31" y="82" as="targetPoint" />
            <Array as="points">
              <mxPoint x="40" y="85" />
            </Array>
          </mxGeometry>
        </mxCell>
        <mxCell id="2KIVhRjF1y1EVybfexX1-4" value="participates" style="shape=rhombus;perimeter=rhombusPerimeter;whiteSpace=wrap;html=1;align=center;" vertex="1" parent="1">
          <mxGeometry x="-20" y="-34" width="120" height="60" as="geometry" />
        </mxCell>
        <mxCell id="2KIVhRjF1y1EVybfexX1-5" value="" style="endArrow=none;html=1;rounded=0;entryX=0.5;entryY=0;entryDx=0;entryDy=0;" edge="1" parent="1" source="2KIVhRjF1y1EVybfexX1-6" target="2KIVhRjF1y1EVybfexX1-1">
          <mxGeometry relative="1" as="geometry">
            <mxPoint x="143" y="-66" as="sourcePoint" />
            <mxPoint x="299" y="11" as="targetPoint" />
            <Array as="points" />
          </mxGeometry>
        </mxCell>
        <mxCell id="2KIVhRjF1y1EVybfexX1-6" value="commited" style="shape=rhombus;perimeter=rhombusPerimeter;whiteSpace=wrap;html=1;align=center;" vertex="1" parent="1">
          <mxGeometry x="156" y="-90" width="120" height="60" as="geometry" />
        </mxCell>
        <mxCell id="2KIVhRjF1y1EVybfexX1-7" value="" style="endArrow=none;html=1;rounded=0;entryX=1;entryY=0.5;entryDx=0;entryDy=0;shape=link;" edge="1" parent="1" source="2KIVhRjF1y1EVybfexX1-8" target="2KIVhRjF1y1EVybfexX1-1">
          <mxGeometry relative="1" as="geometry">
            <mxPoint x="602" y="83" as="sourcePoint" />
            <mxPoint x="758" y="160" as="targetPoint" />
            <Array as="points">
              <mxPoint x="393" y="42" />
            </Array>
          </mxGeometry>
        </mxCell>
        <mxCell id="2KIVhRjF1y1EVybfexX1-54" value="&lt;div&gt;(1,4)&lt;/div&gt;" style="edgeLabel;html=1;align=center;verticalAlign=middle;resizable=0;points=[];rotation=-20;" vertex="1" connectable="0" parent="2KIVhRjF1y1EVybfexX1-7">
          <mxGeometry x="-0.0435" y="-2" relative="1" as="geometry">
            <mxPoint x="-3" y="-9" as="offset" />
          </mxGeometry>
        </mxCell>
        <mxCell id="2KIVhRjF1y1EVybfexX1-8" value="is assigned to" style="shape=rhombus;perimeter=rhombusPerimeter;whiteSpace=wrap;html=1;align=center;" vertex="1" parent="1">
          <mxGeometry x="344" y="5" width="120" height="60" as="geometry" />
        </mxCell>
        <mxCell id="2KIVhRjF1y1EVybfexX1-9" value="" style="endArrow=none;html=1;rounded=0;entryX=0.5;entryY=0;entryDx=0;entryDy=0;" edge="1" parent="1" source="2KIVhRjF1y1EVybfexX1-10" target="2KIVhRjF1y1EVybfexX1-29">
          <mxGeometry relative="1" as="geometry">
            <mxPoint x="463" y="271" as="sourcePoint" />
            <mxPoint x="619" y="348" as="targetPoint" />
            <Array as="points">
              <mxPoint x="493" y="348" />
            </Array>
          </mxGeometry>
        </mxCell>
        <mxCell id="2KIVhRjF1y1EVybfexX1-10" value="is guarded by" style="shape=rhombus;perimeter=rhombusPerimeter;whiteSpace=wrap;html=1;align=center;" vertex="1" parent="1">
          <mxGeometry x="442" y="218" width="120" height="60" as="geometry" />
        </mxCell>
        <mxCell id="2KIVhRjF1y1EVybfexX1-14" value="" style="endArrow=none;html=1;rounded=0;exitX=1;exitY=0;exitDx=0;exitDy=0;" edge="1" parent="1" source="2KIVhRjF1y1EVybfexX1-6" target="2KIVhRjF1y1EVybfexX1-15">
          <mxGeometry relative="1" as="geometry">
            <mxPoint x="269.9999999999998" y="-77" as="sourcePoint" />
            <mxPoint x="343" y="-86" as="targetPoint" />
          </mxGeometry>
        </mxCell>
        <mxCell id="2KIVhRjF1y1EVybfexX1-15" value="Date" style="ellipse;whiteSpace=wrap;html=1;align=center;" vertex="1" parent="1">
          <mxGeometry x="293" y="-106" width="100" height="40" as="geometry" />
        </mxCell>
        <mxCell id="2KIVhRjF1y1EVybfexX1-17" value="" style="endArrow=none;html=1;rounded=0;exitX=1;exitY=1;exitDx=0;exitDy=0;entryX=0.25;entryY=0;entryDx=0;entryDy=0;" edge="1" parent="1" source="2KIVhRjF1y1EVybfexX1-35" target="2KIVhRjF1y1EVybfexX1-23">
          <mxGeometry relative="1" as="geometry">
            <mxPoint x="-211" y="59" as="sourcePoint" />
            <mxPoint x="-51" y="59" as="targetPoint" />
          </mxGeometry>
        </mxCell>
        <mxCell id="2KIVhRjF1y1EVybfexX1-18" value="" style="endArrow=none;html=1;rounded=0;exitX=0.5;exitY=1;exitDx=0;exitDy=0;" edge="1" parent="1" source="2KIVhRjF1y1EVybfexX1-1" target="2KIVhRjF1y1EVybfexX1-55">
          <mxGeometry relative="1" as="geometry">
            <mxPoint x="136" y="149" as="sourcePoint" />
            <mxPoint x="216" y="146" as="targetPoint" />
          </mxGeometry>
        </mxCell>
        <mxCell id="2KIVhRjF1y1EVybfexX1-19" value="" style="endArrow=none;html=1;rounded=0;entryX=0.5;entryY=1;entryDx=0;entryDy=0;exitX=0.5;exitY=0;exitDx=0;exitDy=0;" edge="1" parent="1" source="2KIVhRjF1y1EVybfexX1-10" target="2KIVhRjF1y1EVybfexX1-27">
          <mxGeometry relative="1" as="geometry">
            <mxPoint x="-172" y="122" as="sourcePoint" />
            <mxPoint x="-19" y="122" as="targetPoint" />
          </mxGeometry>
        </mxCell>
        <mxCell id="2KIVhRjF1y1EVybfexX1-20" value="" style="endArrow=none;html=1;rounded=0;entryX=0.419;entryY=0;entryDx=0;entryDy=0;entryPerimeter=0;exitX=0.75;exitY=1;exitDx=0;exitDy=0;" edge="1" parent="1" source="2KIVhRjF1y1EVybfexX1-72" target="2KIVhRjF1y1EVybfexX1-78">
          <mxGeometry relative="1" as="geometry">
            <mxPoint x="-152" y="161" as="sourcePoint" />
            <mxPoint x="8" y="161" as="targetPoint" />
          </mxGeometry>
        </mxCell>
        <mxCell id="2KIVhRjF1y1EVybfexX1-21" value="" style="endArrow=none;html=1;rounded=0;exitX=1;exitY=0.5;exitDx=0;exitDy=0;entryX=0;entryY=0.5;entryDx=0;entryDy=0;" edge="1" parent="1" source="2KIVhRjF1y1EVybfexX1-34" target="2KIVhRjF1y1EVybfexX1-25">
          <mxGeometry relative="1" as="geometry">
            <mxPoint x="143" y="-176" as="sourcePoint" />
            <mxPoint x="303" y="-176" as="targetPoint" />
          </mxGeometry>
        </mxCell>
        <mxCell id="2KIVhRjF1y1EVybfexX1-22" value="" style="endArrow=none;html=1;rounded=0;exitX=1;exitY=0.5;exitDx=0;exitDy=0;entryX=0;entryY=0.5;entryDx=0;entryDy=0;" edge="1" parent="1" source="2KIVhRjF1y1EVybfexX1-33" target="2KIVhRjF1y1EVybfexX1-23">
          <mxGeometry relative="1" as="geometry">
            <mxPoint x="-145" y="-90" as="sourcePoint" />
            <mxPoint x="15" y="-90" as="targetPoint" />
          </mxGeometry>
        </mxCell>
        <mxCell id="2KIVhRjF1y1EVybfexX1-23" value="&lt;div&gt;Program&lt;/div&gt;" style="whiteSpace=wrap;html=1;align=center;" vertex="1" parent="1">
          <mxGeometry x="-145" y="-179" width="100" height="40" as="geometry" />
        </mxCell>
        <mxCell id="2KIVhRjF1y1EVybfexX1-24" value="" style="endArrow=none;html=1;rounded=0;entryX=0.5;entryY=1;entryDx=0;entryDy=0;exitX=0.5;exitY=0;exitDx=0;exitDy=0;" edge="1" parent="1" target="2KIVhRjF1y1EVybfexX1-23" source="2KIVhRjF1y1EVybfexX1-4">
          <mxGeometry relative="1" as="geometry">
            <mxPoint x="74" y="-149" as="sourcePoint" />
            <mxPoint x="-105" y="-99" as="targetPoint" />
            <Array as="points" />
          </mxGeometry>
        </mxCell>
        <mxCell id="2KIVhRjF1y1EVybfexX1-25" value="Crime" style="whiteSpace=wrap;html=1;align=center;" vertex="1" parent="1">
          <mxGeometry x="166" y="-229" width="100" height="40" as="geometry" />
        </mxCell>
        <mxCell id="2KIVhRjF1y1EVybfexX1-26" value="" style="endArrow=none;html=1;rounded=0;entryX=0.5;entryY=1;entryDx=0;entryDy=0;exitX=0.5;exitY=0;exitDx=0;exitDy=0;" edge="1" parent="1" target="2KIVhRjF1y1EVybfexX1-25" source="2KIVhRjF1y1EVybfexX1-6">
          <mxGeometry relative="1" as="geometry">
            <mxPoint x="480" y="-191" as="sourcePoint" />
            <mxPoint x="793" y="-66" as="targetPoint" />
            <Array as="points" />
          </mxGeometry>
        </mxCell>
        <mxCell id="2KIVhRjF1y1EVybfexX1-27" value="Cell" style="whiteSpace=wrap;html=1;align=center;" vertex="1" parent="1">
          <mxGeometry x="581" y="-222" width="100" height="40" as="geometry" />
        </mxCell>
        <mxCell id="2KIVhRjF1y1EVybfexX1-28" value="" style="endArrow=none;html=1;rounded=0;entryX=0.206;entryY=1.004;entryDx=0;entryDy=0;exitX=1;exitY=0;exitDx=0;exitDy=0;entryPerimeter=0;" edge="1" parent="1" target="2KIVhRjF1y1EVybfexX1-27" source="2KIVhRjF1y1EVybfexX1-8">
          <mxGeometry relative="1" as="geometry">
            <mxPoint x="814" y="-98" as="sourcePoint" />
            <mxPoint x="1127" y="27" as="targetPoint" />
            <Array as="points" />
          </mxGeometry>
        </mxCell>
        <mxCell id="2KIVhRjF1y1EVybfexX1-29" value="Guard" style="whiteSpace=wrap;html=1;align=center;" vertex="1" parent="1">
          <mxGeometry x="440" y="407" width="100" height="40" as="geometry" />
        </mxCell>
        <mxCell id="2KIVhRjF1y1EVybfexX1-30" value="" style="endArrow=none;html=1;rounded=0;entryX=1;entryY=0.5;entryDx=0;entryDy=0;" edge="1" parent="1" target="2KIVhRjF1y1EVybfexX1-29">
          <mxGeometry relative="1" as="geometry">
            <mxPoint x="719" y="377" as="sourcePoint" />
            <mxPoint x="1032" y="502" as="targetPoint" />
            <Array as="points">
              <mxPoint x="688" y="414" />
            </Array>
          </mxGeometry>
        </mxCell>
        <mxCell id="2KIVhRjF1y1EVybfexX1-31" value="Staff" style="whiteSpace=wrap;html=1;align=center;" vertex="1" parent="1">
          <mxGeometry x="35" y="350" width="100" height="40" as="geometry" />
        </mxCell>
        <mxCell id="2KIVhRjF1y1EVybfexX1-32" value="" style="endArrow=none;html=1;rounded=0;entryX=1;entryY=0.5;entryDx=0;entryDy=0;" edge="1" parent="1" target="2KIVhRjF1y1EVybfexX1-31">
          <mxGeometry relative="1" as="geometry">
            <mxPoint x="314" y="320" as="sourcePoint" />
            <mxPoint x="627" y="445" as="targetPoint" />
            <Array as="points">
              <mxPoint x="283" y="357" />
            </Array>
          </mxGeometry>
        </mxCell>
        <mxCell id="2KIVhRjF1y1EVybfexX1-33" value="ProgramID" style="ellipse;whiteSpace=wrap;html=1;align=center;fontStyle=4;" vertex="1" parent="1">
          <mxGeometry x="-264" y="-179" width="100" height="40" as="geometry" />
        </mxCell>
        <mxCell id="2KIVhRjF1y1EVybfexX1-34" value="CrimeID" style="ellipse;whiteSpace=wrap;html=1;align=center;fontStyle=4;" vertex="1" parent="1">
          <mxGeometry x="47" y="-229" width="100" height="40" as="geometry" />
        </mxCell>
        <mxCell id="2KIVhRjF1y1EVybfexX1-35" value="StartDate" style="ellipse;whiteSpace=wrap;html=1;align=center;" vertex="1" parent="1">
          <mxGeometry x="-229" y="-242" width="100" height="40" as="geometry" />
        </mxCell>
        <mxCell id="2KIVhRjF1y1EVybfexX1-36" value="EndDate" style="ellipse;whiteSpace=wrap;html=1;align=center;" vertex="1" parent="1">
          <mxGeometry x="-106" y="-252" width="100" height="40" as="geometry" />
        </mxCell>
        <mxCell id="2KIVhRjF1y1EVybfexX1-37" value="&lt;div&gt;ProgramName&lt;/div&gt;" style="ellipse;whiteSpace=wrap;html=1;align=center;" vertex="1" parent="1">
          <mxGeometry x="-206" y="-111" width="100" height="40" as="geometry" />
        </mxCell>
        <mxCell id="2KIVhRjF1y1EVybfexX1-38" value="" style="endArrow=none;html=1;rounded=0;exitX=0.5;exitY=0;exitDx=0;exitDy=0;entryX=0.25;entryY=1;entryDx=0;entryDy=0;" edge="1" parent="1" source="2KIVhRjF1y1EVybfexX1-37" target="2KIVhRjF1y1EVybfexX1-23">
          <mxGeometry relative="1" as="geometry">
            <mxPoint x="-129" y="-141" as="sourcePoint" />
            <mxPoint x="-110" y="-141" as="targetPoint" />
          </mxGeometry>
        </mxCell>
        <mxCell id="2KIVhRjF1y1EVybfexX1-39" value="" style="endArrow=none;html=1;rounded=0;exitX=0.45;exitY=0;exitDx=0;exitDy=0;entryX=0.5;entryY=1;entryDx=0;entryDy=0;exitPerimeter=0;" edge="1" parent="1" source="2KIVhRjF1y1EVybfexX1-23" target="2KIVhRjF1y1EVybfexX1-36">
          <mxGeometry relative="1" as="geometry">
            <mxPoint x="-80" y="-198" as="sourcePoint" />
            <mxPoint x="-61" y="-198" as="targetPoint" />
          </mxGeometry>
        </mxCell>
        <mxCell id="2KIVhRjF1y1EVybfexX1-41" value="" style="endArrow=none;html=1;rounded=0;exitX=1;exitY=1;exitDx=0;exitDy=0;entryX=0.219;entryY=-0.007;entryDx=0;entryDy=0;entryPerimeter=0;" edge="1" parent="1" source="2KIVhRjF1y1EVybfexX1-42" target="2KIVhRjF1y1EVybfexX1-25">
          <mxGeometry relative="1" as="geometry">
            <mxPoint x="107" y="-4" as="sourcePoint" />
            <mxPoint x="198" y="-242" as="targetPoint" />
          </mxGeometry>
        </mxCell>
        <mxCell id="2KIVhRjF1y1EVybfexX1-42" value="Serverity" style="ellipse;whiteSpace=wrap;html=1;align=center;" vertex="1" parent="1">
          <mxGeometry x="94" y="-292" width="100" height="40" as="geometry" />
        </mxCell>
        <mxCell id="2KIVhRjF1y1EVybfexX1-43" value="Description" style="ellipse;whiteSpace=wrap;html=1;align=center;" vertex="1" parent="1">
          <mxGeometry x="209" y="-292" width="100" height="40" as="geometry" />
        </mxCell>
        <mxCell id="2KIVhRjF1y1EVybfexX1-44" value="" style="endArrow=none;html=1;rounded=0;exitX=0.75;exitY=0;exitDx=0;exitDy=0;entryX=0.5;entryY=1;entryDx=0;entryDy=0;" edge="1" parent="1" target="2KIVhRjF1y1EVybfexX1-43" source="2KIVhRjF1y1EVybfexX1-25">
          <mxGeometry relative="1" as="geometry">
            <mxPoint x="218" y="-242" as="sourcePoint" />
            <mxPoint x="257" y="-261" as="targetPoint" />
          </mxGeometry>
        </mxCell>
        <mxCell id="2KIVhRjF1y1EVybfexX1-45" value="" style="endArrow=none;html=1;rounded=0;exitX=1;exitY=0.5;exitDx=0;exitDy=0;entryX=0;entryY=0.5;entryDx=0;entryDy=0;" edge="1" parent="1" source="2KIVhRjF1y1EVybfexX1-47" target="2KIVhRjF1y1EVybfexX1-27">
          <mxGeometry relative="1" as="geometry">
            <mxPoint x="558" y="-182" as="sourcePoint" />
            <mxPoint x="581" y="-215" as="targetPoint" />
          </mxGeometry>
        </mxCell>
        <mxCell id="2KIVhRjF1y1EVybfexX1-47" value="CellID" style="ellipse;whiteSpace=wrap;html=1;align=center;fontStyle=4;" vertex="1" parent="1">
          <mxGeometry x="462" y="-235" width="100" height="40" as="geometry" />
        </mxCell>
        <mxCell id="2KIVhRjF1y1EVybfexX1-48" value="" style="endArrow=none;html=1;rounded=0;exitX=1;exitY=1;exitDx=0;exitDy=0;entryX=0.25;entryY=0;entryDx=0;entryDy=0;" edge="1" parent="1" source="2KIVhRjF1y1EVybfexX1-49" target="2KIVhRjF1y1EVybfexX1-27">
          <mxGeometry relative="1" as="geometry">
            <mxPoint x="522" y="-10" as="sourcePoint" />
            <mxPoint x="602.9000000000001" y="-235.27999999999997" as="targetPoint" />
          </mxGeometry>
        </mxCell>
        <mxCell id="2KIVhRjF1y1EVybfexX1-49" value="CellNumber" style="ellipse;whiteSpace=wrap;html=1;align=center;" vertex="1" parent="1">
          <mxGeometry x="509" y="-298" width="100" height="40" as="geometry" />
        </mxCell>
        <mxCell id="2KIVhRjF1y1EVybfexX1-50" value="Location" style="ellipse;whiteSpace=wrap;html=1;align=center;" vertex="1" parent="1">
          <mxGeometry x="624" y="-298" width="100" height="40" as="geometry" />
        </mxCell>
        <mxCell id="2KIVhRjF1y1EVybfexX1-51" value="" style="endArrow=none;html=1;rounded=0;exitX=0.75;exitY=0;exitDx=0;exitDy=0;entryX=0.5;entryY=1;entryDx=0;entryDy=0;" edge="1" parent="1" source="2KIVhRjF1y1EVybfexX1-27" target="2KIVhRjF1y1EVybfexX1-50">
          <mxGeometry relative="1" as="geometry">
            <mxPoint x="656" y="-235" as="sourcePoint" />
            <mxPoint x="672" y="-267" as="targetPoint" />
          </mxGeometry>
        </mxCell>
        <mxCell id="2KIVhRjF1y1EVybfexX1-52" value="Capacity" style="ellipse;whiteSpace=wrap;html=1;align=center;" vertex="1" parent="1">
          <mxGeometry x="706" y="-253" width="100" height="40" as="geometry" />
        </mxCell>
        <mxCell id="2KIVhRjF1y1EVybfexX1-53" value="" style="endArrow=none;html=1;rounded=0;exitX=1;exitY=0.5;exitDx=0;exitDy=0;entryX=0.5;entryY=1;entryDx=0;entryDy=0;" edge="1" parent="1" target="2KIVhRjF1y1EVybfexX1-52" source="2KIVhRjF1y1EVybfexX1-27">
          <mxGeometry relative="1" as="geometry">
            <mxPoint x="738" y="-177" as="sourcePoint" />
            <mxPoint x="754" y="-222" as="targetPoint" />
          </mxGeometry>
        </mxCell>
        <mxCell id="2KIVhRjF1y1EVybfexX1-55" value="&lt;div align=&quot;center&quot;&gt;&lt;font style=&quot;font-size: 18px;&quot;&gt;o&lt;/font&gt;&lt;/div&gt;" style="ellipse;whiteSpace=wrap;html=1;align=center;" vertex="1" parent="1">
          <mxGeometry x="196.5" y="139" width="39" height="40" as="geometry" />
        </mxCell>
        <mxCell id="2KIVhRjF1y1EVybfexX1-60" value="" style="endArrow=none;html=1;rounded=0;exitX=1;exitY=1;exitDx=0;exitDy=0;entryX=0.25;entryY=0;entryDx=0;entryDy=0;" edge="1" parent="1" source="2KIVhRjF1y1EVybfexX1-55" target="2KIVhRjF1y1EVybfexX1-72">
          <mxGeometry x="-0.0021" y="-24" relative="1" as="geometry">
            <mxPoint x="234" y="188" as="sourcePoint" />
            <mxPoint x="258" y="210" as="targetPoint" />
            <mxPoint as="offset" />
          </mxGeometry>
        </mxCell>
        <mxCell id="2KIVhRjF1y1EVybfexX1-61" value="" style="endArrow=none;html=1;rounded=0;exitX=0.098;exitY=0.775;exitDx=0;exitDy=0;exitPerimeter=0;entryX=0.618;entryY=0.026;entryDx=0;entryDy=0;entryPerimeter=0;" edge="1" parent="1" source="2KIVhRjF1y1EVybfexX1-55" target="2KIVhRjF1y1EVybfexX1-68">
          <mxGeometry relative="1" as="geometry">
            <mxPoint x="161" y="170" as="sourcePoint" />
            <mxPoint x="172" y="217" as="targetPoint" />
          </mxGeometry>
        </mxCell>
        <mxCell id="2KIVhRjF1y1EVybfexX1-64" value="" style="shape=requiredInterface;html=1;verticalLabelPosition=bottom;sketch=0;rotation=49;" vertex="1" parent="1">
          <mxGeometry x="241" y="184" width="10" height="20" as="geometry" />
        </mxCell>
        <mxCell id="2KIVhRjF1y1EVybfexX1-65" value="" style="shape=requiredInterface;html=1;verticalLabelPosition=bottom;sketch=0;rotation=120;" vertex="1" parent="1">
          <mxGeometry x="177.99739094718024" y="188.0041381910189" width="10" height="20" as="geometry" />
        </mxCell>
        <mxCell id="2KIVhRjF1y1EVybfexX1-67" value="" style="endArrow=none;html=1;rounded=0;exitX=1;exitY=0.5;exitDx=0;exitDy=0;entryX=0;entryY=0.5;entryDx=0;entryDy=0;" edge="1" parent="1" target="2KIVhRjF1y1EVybfexX1-68" source="2KIVhRjF1y1EVybfexX1-76">
          <mxGeometry relative="1" as="geometry">
            <mxPoint x="90" y="238" as="sourcePoint" />
            <mxPoint x="269" y="307" as="targetPoint" />
          </mxGeometry>
        </mxCell>
        <mxCell id="2KIVhRjF1y1EVybfexX1-68" value="&lt;div&gt;Program&lt;/div&gt;" style="whiteSpace=wrap;html=1;align=center;" vertex="1" parent="1">
          <mxGeometry x="109" y="218" width="100" height="40" as="geometry" />
        </mxCell>
        <mxCell id="2KIVhRjF1y1EVybfexX1-69" value="&lt;div&gt;ProgramName&lt;/div&gt;" style="ellipse;whiteSpace=wrap;html=1;align=center;" vertex="1" parent="1">
          <mxGeometry x="48" y="286" width="100" height="40" as="geometry" />
        </mxCell>
        <mxCell id="2KIVhRjF1y1EVybfexX1-70" value="" style="endArrow=none;html=1;rounded=0;exitX=0.5;exitY=0;exitDx=0;exitDy=0;entryX=0.25;entryY=1;entryDx=0;entryDy=0;" edge="1" parent="1" source="2KIVhRjF1y1EVybfexX1-69" target="2KIVhRjF1y1EVybfexX1-68">
          <mxGeometry relative="1" as="geometry">
            <mxPoint x="125" y="256" as="sourcePoint" />
            <mxPoint x="144" y="256" as="targetPoint" />
          </mxGeometry>
        </mxCell>
        <mxCell id="2KIVhRjF1y1EVybfexX1-71" value="" style="endArrow=none;html=1;rounded=0;exitX=0.594;exitY=-0.01;exitDx=0;exitDy=0;exitPerimeter=0;entryX=0.423;entryY=0.976;entryDx=0;entryDy=0;entryPerimeter=0;" edge="1" parent="1" target="2KIVhRjF1y1EVybfexX1-75" source="2KIVhRjF1y1EVybfexX1-72">
          <mxGeometry relative="1" as="geometry">
            <mxPoint x="220" y="238" as="sourcePoint" />
            <mxPoint x="310" y="197" as="targetPoint" />
          </mxGeometry>
        </mxCell>
        <mxCell id="2KIVhRjF1y1EVybfexX1-72" value="&lt;div&gt;Program&lt;/div&gt;" style="whiteSpace=wrap;html=1;align=center;" vertex="1" parent="1">
          <mxGeometry x="239" y="218" width="100" height="40" as="geometry" />
        </mxCell>
        <mxCell id="2KIVhRjF1y1EVybfexX1-73" value="CourseName" style="ellipse;whiteSpace=wrap;html=1;align=center;" vertex="1" parent="1">
          <mxGeometry x="178" y="286" width="100" height="40" as="geometry" />
        </mxCell>
        <mxCell id="2KIVhRjF1y1EVybfexX1-74" value="" style="endArrow=none;html=1;rounded=0;exitX=0.5;exitY=0;exitDx=0;exitDy=0;entryX=0.25;entryY=1;entryDx=0;entryDy=0;" edge="1" parent="1" source="2KIVhRjF1y1EVybfexX1-73" target="2KIVhRjF1y1EVybfexX1-72">
          <mxGeometry relative="1" as="geometry">
            <mxPoint x="255" y="256" as="sourcePoint" />
            <mxPoint x="274" y="256" as="targetPoint" />
          </mxGeometry>
        </mxCell>
        <mxCell id="2KIVhRjF1y1EVybfexX1-75" value="LearningField" style="ellipse;whiteSpace=wrap;html=1;align=center;" vertex="1" parent="1">
          <mxGeometry x="278" y="150" width="100" height="40" as="geometry" />
        </mxCell>
        <mxCell id="2KIVhRjF1y1EVybfexX1-76" value="&lt;div&gt;ProgramName&lt;/div&gt;" style="ellipse;whiteSpace=wrap;html=1;align=center;" vertex="1" parent="1">
          <mxGeometry x="-14" y="218" width="100" height="40" as="geometry" />
        </mxCell>
        <mxCell id="2KIVhRjF1y1EVybfexX1-78" value="&lt;div&gt;ProgramName&lt;/div&gt;" style="ellipse;whiteSpace=wrap;html=1;align=center;" vertex="1" parent="1">
          <mxGeometry x="290" y="273" width="100" height="40" as="geometry" />
        </mxCell>
        <mxCell id="2KIVhRjF1y1EVybfexX1-79" value="" style="endArrow=none;html=1;rounded=0;entryX=0;entryY=0.5;entryDx=0;entryDy=0;" edge="1" parent="1" source="2KIVhRjF1y1EVybfexX1-80">
          <mxGeometry relative="1" as="geometry">
            <mxPoint x="839" y="188" as="sourcePoint" />
            <mxPoint x="995" y="265" as="targetPoint" />
            <Array as="points">
              <mxPoint x="869" y="265" />
            </Array>
          </mxGeometry>
        </mxCell>
        <mxCell id="2KIVhRjF1y1EVybfexX1-80" value="Relationship" style="shape=rhombus;perimeter=rhombusPerimeter;whiteSpace=wrap;html=1;align=center;" vertex="1" parent="1">
          <mxGeometry x="699" y="10" width="120" height="60" as="geometry" />
        </mxCell>
      </root>
    </mxGraphModel>
  </diagram>
</mxfile>
